<svg width="680" viewBox="0 0 680 650" xmlns="http://www.w3.org/2000/svg" style="background:#fff;">
<defs><marker id="arrow" viewBox="0 0 10 10" refX="8" refY="5" markerWidth="6" markerHeight="6" orient="auto-start-reverse"><path d="M2 1L8 5L2 9" fill="none" stroke="context-stroke" stroke-width="1.5" stroke-linecap="round" stroke-linejoin="round"/></marker></defs>

<text x="340" y="16" text-anchor="middle" font-family="system-ui,sans-serif" font-size="16" font-weight="600" fill="#222">BlueJay-Bites — User flow diagram</text>

<!-- Login -->
<rect x="265" y="35" width="150" height="44" rx="8" fill="#F1EFE8" stroke="#5F5E5A" stroke-width="0.5"/>
<text x="340" y="57" text-anchor="middle" dominant-baseline="central" font-family="system-ui,sans-serif" font-size="14" font-weight="500" fill="#2C2C2A">Login</text>

<!-- Arrows from login - horizontal at y=88, labels at y=115, boxes at y=135 -->
<path d="M340 79 L340 88 L110 88 L110 135" fill="none" stroke="#888780" stroke-width="1.5" marker-end="url(#arrow)"/>
<path d="M340 79 L340 135" fill="none" stroke="#888780" stroke-width="1.5" marker-end="url(#arrow)"/>
<path d="M340 79 L340 88 L575 88 L575 135" fill="none" stroke="#888780" stroke-width="1.5" marker-end="url(#arrow)"/>

<!-- Role labels - positioned below arrows, above boxes -->
<text x="110" y="118" text-anchor="middle" font-family="system-ui,sans-serif" font-size="12" fill="#5F5E5A">user</text>
<text x="340" y="118" text-anchor="middle" font-family="system-ui,sans-serif" font-size="12" fill="#5F5E5A">event organizer</text>
<text x="575" y="118" text-anchor="middle" font-family="system-ui,sans-serif" font-size="12" fill="#5F5E5A">admin</text>

<!-- === USER COLUMN (center 110) === -->
<rect x="35" y="135" width="150" height="44" rx="8" fill="#E1F5EE" stroke="#0F6E56" stroke-width="0.5"/>
<text x="110" y="157" text-anchor="middle" dominant-baseline="central" font-family="system-ui,sans-serif" font-size="14" font-weight="500" fill="#085041">Home page</text>

<line x1="110" y1="179" x2="110" y2="225" stroke="#0F6E56" stroke-width="1.5" marker-end="url(#arrow)"/>

<rect x="35" y="225" width="150" height="56" rx="8" fill="#E1F5EE" stroke="#0F6E56" stroke-width="0.5"/>
<text x="110" y="243" text-anchor="middle" dominant-baseline="central" font-family="system-ui,sans-serif" font-size="14" font-weight="500" fill="#085041">Event details</text>
<text x="110" y="263" text-anchor="middle" dominant-baseline="central" font-family="system-ui,sans-serif" font-size="12" fill="#0F6E56">Photo, directions, servings</text>

<line x1="110" y1="281" x2="110" y2="325" stroke="#0F6E56" stroke-width="1.5" marker-end="url(#arrow)"/>

<rect x="35" y="325" width="150" height="56" rx="8" fill="#E1F5EE" stroke="#0F6E56" stroke-width="0.5"/>
<text x="110" y="343" text-anchor="middle" dominant-baseline="central" font-family="system-ui,sans-serif" font-size="14" font-weight="500" fill="#085041">Notifications</text>
<text x="110" y="363" text-anchor="middle" dominant-baseline="central" font-family="system-ui,sans-serif" font-size="12" fill="#0F6E56">In-app or email (TBD)</text>

<line x1="110" y1="381" x2="110" y2="425" stroke="#0F6E56" stroke-width="1.5" marker-end="url(#arrow)"/>

<rect x="35" y="425" width="150" height="44" rx="8" fill="#E1F5EE" stroke="#0F6E56" stroke-width="0.5"/>
<text x="110" y="447" text-anchor="middle" dominant-baseline="central" font-family="system-ui,sans-serif" font-size="14" font-weight="500" fill="#085041">Log out</text>

<!-- === EVENT ORGANIZER COLUMN (center 340) === -->
<rect x="265" y="135" width="150" height="44" rx="8" fill="#FAECE7" stroke="#993C1D" stroke-width="0.5"/>
<text x="340" y="157" text-anchor="middle" dominant-baseline="central" font-family="system-ui,sans-serif" font-size="14" font-weight="500" fill="#712B13">Home page</text>

<!-- Arrows to create and my events -->
<path d="M340 179 L340 202 L280 202 L280 225" fill="none" stroke="#993C1D" stroke-width="1.5" marker-end="url(#arrow)"/>
<path d="M340 179 L340 202 L405 202 L405 225" fill="none" stroke="#993C1D" stroke-width="1.5" marker-end="url(#arrow)"/>

<rect x="215" y="225" width="130" height="56" rx="8" fill="#FAECE7" stroke="#993C1D" stroke-width="0.5"/>
<text x="280" y="243" text-anchor="middle" dominant-baseline="central" font-family="system-ui,sans-serif" font-size="14" font-weight="500" fill="#712B13">Create event</text>
<text x="280" y="263" text-anchor="middle" dominant-baseline="central" font-family="system-ui,sans-serif" font-size="12" fill="#993C1D">Full form + photo</text>

<rect x="355" y="225" width="100" height="56" rx="8" fill="#FAECE7" stroke="#993C1D" stroke-width="0.5"/>
<text x="405" y="243" text-anchor="middle" dominant-baseline="central" font-family="system-ui,sans-serif" font-size="14" font-weight="500" fill="#712B13">My events</text>
<text x="405" y="263" text-anchor="middle" dominant-baseline="central" font-family="system-ui,sans-serif" font-size="12" fill="#993C1D">Manage own</text>

<!-- Arrows to edit and close -->
<path d="M405 281 L405 305 L320 305 L320 325" fill="none" stroke="#993C1D" stroke-width="1.5" marker-end="url(#arrow)"/>
<path d="M405 281 L405 305 L440 305 L440 325" fill="none" stroke="#993C1D" stroke-width="1.5" marker-end="url(#arrow)"/>

<rect x="260" y="325" width="120" height="44" rx="8" fill="#FAECE7" stroke="#993C1D" stroke-width="0.5"/>
<text x="320" y="347" text-anchor="middle" dominant-baseline="central" font-family="system-ui,sans-serif" font-size="14" font-weight="500" fill="#712B13">Edit event</text>

<rect x="390" y="325" width="100" height="44" rx="8" fill="#FAECE7" stroke="#993C1D" stroke-width="0.5"/>
<text x="440" y="347" text-anchor="middle" dominant-baseline="central" font-family="system-ui,sans-serif" font-size="14" font-weight="500" fill="#712B13">Close event</text>

<!-- === ADMIN COLUMN (center 575, stacked vertically) === -->
<rect x="500" y="135" width="150" height="44" rx="8" fill="#EEEDFE" stroke="#534AB7" stroke-width="0.5"/>
<text x="575" y="157" text-anchor="middle" dominant-baseline="central" font-family="system-ui,sans-serif" font-size="14" font-weight="500" fill="#3C3489">Home page</text>

<line x1="575" y1="179" x2="575" y2="225" stroke="#534AB7" stroke-width="1.5" marker-end="url(#arrow)"/>

<rect x="500" y="225" width="150" height="56" rx="8" fill="#EEEDFE" stroke="#534AB7" stroke-width="0.5"/>
<text x="575" y="243" text-anchor="middle" dominant-baseline="central" font-family="system-ui,sans-serif" font-size="14" font-weight="500" fill="#3C3489">All events</text>
<text x="575" y="263" text-anchor="middle" dominant-baseline="central" font-family="system-ui,sans-serif" font-size="12" fill="#534AB7">Edit/close any</text>

<line x1="575" y1="281" x2="575" y2="325" stroke="#534AB7" stroke-width="1.5" marker-end="url(#arrow)"/>

<rect x="500" y="325" width="150" height="56" rx="8" fill="#EEEDFE" stroke="#534AB7" stroke-width="0.5"/>
<text x="575" y="343" text-anchor="middle" dominant-baseline="central" font-family="system-ui,sans-serif" font-size="14" font-weight="500" fill="#3C3489">Permissions</text>
<text x="575" y="363" text-anchor="middle" dominant-baseline="central" font-family="system-ui,sans-serif" font-size="12" fill="#534AB7">Promote/demote</text>

<line x1="575" y1="381" x2="575" y2="425" stroke="#534AB7" stroke-width="1.5" marker-end="url(#arrow)"/>

<rect x="500" y="425" width="150" height="56" rx="8" fill="#EEEDFE" stroke="#534AB7" stroke-width="0.5"/>
<text x="575" y="443" text-anchor="middle" dominant-baseline="central" font-family="system-ui,sans-serif" font-size="14" font-weight="500" fill="#3C3489">Analytics</text>
<text x="575" y="463" text-anchor="middle" dominant-baseline="central" font-family="system-ui,sans-serif" font-size="12" fill="#534AB7">Metrics dashboard</text>

<!-- Legend -->
<rect x="120" y="620" width="14" height="14" rx="3" fill="#E1F5EE" stroke="#0F6E56" stroke-width="0.5"/>
<text x="140" y="631" dominant-baseline="central" font-family="system-ui,sans-serif" font-size="12" fill="#5F5E5A">User</text>
<rect x="220" y="620" width="14" height="14" rx="3" fill="#FAECE7" stroke="#993C1D" stroke-width="0.5"/>
<text x="240" y="631" dominant-baseline="central" font-family="system-ui,sans-serif" font-size="12" fill="#5F5E5A">Event organizer</text>
<rect x="390" y="620" width="14" height="14" rx="3" fill="#EEEDFE" stroke="#534AB7" stroke-width="0.5"/>
<text x="410" y="631" dominant-baseline="central" font-family="system-ui,sans-serif" font-size="12" fill="#5F5E5A">Admin</text>
<rect x="490" y="620" width="14" height="14" rx="3" fill="#F1EFE8" stroke="#5F5E5A" stroke-width="0.5"/>
<text x="510" y="631" dominant-baseline="central" font-family="system-ui,sans-serif" font-size="12" fill="#5F5E5A">Shared</text>
</svg>
